<svg width="24" height="24" viewBox="0 0 24 24" fill="none" xmlns="http://www.w3.org/2000/svg">
  <path d="M6.50003 10.75C6.80934 10.75 7.08714 10.9402 7.19925 11.2285L10.6992 20.2285C10.7888 20.4592 10.7589 20.7196 10.6192 20.9238C10.4794 21.1281 10.2475 21.25 10 21.25H3.00003C2.75252 21.25 2.52069 21.1281 2.38089 20.9238C2.24117 20.7196 2.21125 20.4592 2.30081 20.2285L5.80081 11.2285C5.91292 10.9402 6.19072 10.75 6.50003 10.75ZM4.09671 19.75H8.90335L6.50003 13.5693L4.09671 19.75Z" fill="black"/>
  <path d="M5.75 22.5V20.5C5.75 20.0858 6.08579 19.75 6.5 19.75C6.91421 19.75 7.25 20.0858 7.25 20.5V22.5C7.25 22.9142 6.91421 23.25 6.5 23.25C6.08579 23.25 5.75 22.9142 5.75 22.5Z" fill="black"/>
  <path d="M17.5 10.75C17.8093 10.75 18.0871 10.9402 18.1992 11.2285L21.6992 20.2285C21.7888 20.4592 21.7589 20.7196 21.6192 20.9238C21.4794 21.1281 21.2475 21.25 21 21.25H14C13.7525 21.25 13.5207 21.1281 13.3809 20.9238C13.2412 20.7196 13.2112 20.4592 13.3008 20.2285L16.8008 11.2285C16.9129 10.9402 17.1907 10.75 17.5 10.75ZM15.0967 19.75H19.9033L17.5 13.5693L15.0967 19.75Z" fill="black"/>
  <path d="M16.75 22.5V20.5C16.75 20.0858 17.0858 19.75 17.5 19.75C17.9142 19.75 18.25 20.0858 18.25 20.5V22.5C18.25 22.9142 17.9142 23.25 17.5 23.25C17.0858 23.25 16.75 22.9142 16.75 22.5Z" fill="black"/>
  <path d="M12 0.75C12.3093 0.75 12.5871 0.940237 12.6992 1.22852L16.1992 10.2285C16.2888 10.4592 16.2589 10.7196 16.1192 10.9238C15.9794 11.1281 15.7475 11.25 15.5 11.25H8.50003C8.25252 11.25 8.02069 11.1281 7.88089 10.9238C7.74117 10.7196 7.71125 10.4592 7.80081 10.2285L11.3008 1.22852C11.4129 0.940237 11.6907 0.75 12 0.75ZM9.59671 9.75H14.4033L12 3.56934L9.59671 9.75Z" fill="black"/>
  <path d="M11.25 12.5V10.5C11.25 10.0858 11.5858 9.75 12 9.75C12.4142 9.75 12.75 10.0858 12.75 10.5V12.5C12.75 12.9142 12.4142 13.25 12 13.25C11.5858 13.25 11.25 12.9142 11.25 12.5Z" fill="black"/>
</svg>