<svg width="512" height="512" viewBox="0 0 512 512" fill="none" xmlns="http://www.w3.org/2000/svg">
<path d="M239.467 476C236.816 476 234.667 473.851 234.667 471.2V386.993C234.667 384.342 232.512 382.2 229.862 382.128C198.516 381.269 173.928 371.91 156.098 354.051C137.366 334.942 128 309.232 128 276.92V100.36C128 97.7091 130.149 95.5601 132.8 95.5601H166.387C169.038 95.5601 171.187 97.7091 171.187 100.36V276.92C171.187 298.114 177.084 314.791 188.878 326.951C199.734 338.144 214.264 344.186 232.467 345.076C235.115 345.205 237.268 343.042 237.268 340.391V40.8C237.268 38.149 239.417 36 242.068 36H269.932C272.583 36 274.732 38.149 274.732 40.8V340.391C274.732 343.042 276.885 345.205 279.533 345.076C297.736 344.186 312.266 338.144 323.122 326.951C334.916 314.791 340.813 298.114 340.813 276.92V100.36C340.813 97.7091 342.962 95.5601 345.613 95.5601H379.2C381.851 95.5601 384 97.7091 384 100.36V276.92C384 309.232 374.634 334.942 355.902 354.051C338.072 371.91 313.484 381.269 282.138 382.128C279.488 382.2 277.333 384.342 277.333 386.993V471.2C277.333 473.851 275.184 476 272.533 476H239.467Z" fill="black"/>
</svg>
