<svg width="512" height="512" viewBox="0 0 512 512" fill="none" xmlns="http://www.w3.org/2000/svg">
<g clip-path="url(#clip0_1_2)">
<path d="M256 464V176" stroke="black" stroke-width="32" stroke-linecap="round" stroke-linejoin="round"/>
<path d="M256 304L160 256" stroke="black" stroke-width="32" stroke-linecap="round" stroke-linejoin="round"/>
<path d="M256 256L352 208" stroke="black" stroke-width="32" stroke-linecap="round" stroke-linejoin="round"/>
<path d="M256 355.88C279.574 374.799 309.105 384.723 339.32 383.88C407.18 382.16 464.18 323.44 464 255.56C463.927 230.077 456.25 205.196 441.952 184.103C427.653 163.01 407.384 146.664 383.74 137.16C374.171 110.972 356.785 88.3585 333.937 72.3809C311.088 56.4034 283.881 47.8343 256 47.8343C228.119 47.8343 200.912 56.4034 178.063 72.3809C155.214 88.3585 137.828 110.972 128.26 137.16C104.603 146.669 84.3253 163.027 70.0258 184.136C55.7262 205.245 48.0565 230.144 47.9999 255.64C47.8199 323.52 104.84 382.24 172.7 383.96C202.918 384.778 232.443 374.825 256 355.88Z" stroke="black" stroke-width="32" stroke-linecap="round" stroke-linejoin="round"/>
</g>
<defs>
<clipPath id="clip0_1_2">
<rect width="512" height="512" fill="white"/>
</clipPath>
</defs>
</svg>
