<svg width="24" height="24" viewBox="0 0 24 24" fill="none" xmlns="http://www.w3.org/2000/svg">
<path d="M7.25 23V15C7.25 14.5858 7.58579 14.25 8 14.25C8.41421 14.25 8.75 14.5858 8.75 15V23C8.75 23.4142 8.41421 23.75 8 23.75C7.58579 23.75 7.25 23.4142 7.25 23Z" fill="currentColor"/>
<path d="M18.25 23V21C18.25 20.5858 18.5858 20.25 19 20.25C19.4142 20.25 19.75 20.5858 19.75 21V23C19.75 23.4142 19.4142 23.75 19 23.75C18.5858 23.75 18.25 23.4142 18.25 23Z" fill="currentColor"/>
<path d="M13.25 13.5C13.25 10.5651 11.8468 7.7172 10.3789 5.55371C9.65147 4.48158 8.92305 3.59966 8.37695 2.98633C8.23812 2.8304 8.11174 2.69163 8 2.57227C7.88826 2.69163 7.76188 2.8304 7.62305 2.98633C7.07695 3.59966 6.34853 4.48158 5.62109 5.55371C4.15318 7.7172 2.75 10.5651 2.75 13.5C2.75 16.3995 5.1005 18.75 8 18.75C10.8995 18.75 13.25 16.3995 13.25 13.5ZM14.75 13.5C14.75 17.2279 11.7279 20.25 8 20.25C4.27208 20.25 1.25 17.2279 1.25 13.5C1.25 10.1212 2.84682 6.96902 4.37891 4.71094C5.15138 3.57242 5.92308 2.63842 6.50195 1.98828C6.79174 1.66283 7.03472 1.40768 7.20605 1.23242C7.29172 1.1448 7.3599 1.07678 7.40723 1.03028C7.43077 1.00714 7.44898 0.989043 7.46191 0.976565C7.46841 0.970302 7.47385 0.965439 7.47754 0.961916L7.4834 0.956057H7.48438C7.77367 0.681884 8.22633 0.681884 8.51562 0.956057L8 1.5L8.5166 0.956057L8.52246 0.961916C8.52615 0.965439 8.53159 0.970302 8.53809 0.976565C8.55102 0.989043 8.56923 1.00714 8.59277 1.03028C8.6401 1.07678 8.70828 1.1448 8.79395 1.23242C8.96528 1.40768 9.20826 1.66283 9.49805 1.98828C10.0769 2.63842 10.8486 3.57242 11.6211 4.71094C13.1532 6.96902 14.75 10.1212 14.75 13.5Z" fill="currentColor"/>
<path d="M21.25 18C21.25 16.6435 20.5968 15.2954 19.8789 14.2373C19.5659 13.776 19.2518 13.3873 19 13.0977C18.7482 13.3873 18.4341 13.776 18.1211 14.2373C17.4032 15.2954 16.75 16.6435 16.75 18C16.75 19.2427 17.7573 20.25 19 20.25C20.2427 20.25 21.25 19.2427 21.25 18ZM22.75 18C22.75 20.0711 21.0711 21.75 19 21.75C16.9289 21.75 15.25 20.0711 15.25 18C15.25 16.1998 16.0969 14.5482 16.8789 13.3955C17.2763 12.8098 17.6731 12.3294 17.9707 11.9951C18.1198 11.8277 18.2457 11.6958 18.335 11.6045C18.3795 11.5589 18.4151 11.523 18.4404 11.498C18.453 11.4857 18.4634 11.4758 18.4707 11.4687L18.4834 11.4561H18.4844C18.7737 11.1819 19.2263 11.1819 19.5156 11.4561L19 12L19.5166 11.4561L19.5293 11.4687C19.5366 11.4758 19.547 11.4857 19.5596 11.498C19.5849 11.523 19.6205 11.5589 19.665 11.6045C19.7543 11.6958 19.8802 11.8277 20.0293 11.9951C20.3269 12.3294 20.7237 12.8098 21.1211 13.3955C21.9031 14.5482 22.75 16.1998 22.75 18Z" fill="currentColor"/>
</svg>
