<svg xmlns="http://www.w3.org/2000/svg" viewBox="0 0 24 24" width="24" height="24" fill="none" stroke="currentColor" stroke-width="1.5" stroke-linecap="round" stroke-linejoin="round">
  <path d="M12 21.75V8.25"/>
  <path d="M12 14.25L7.5 12"/>
  <path d="M12 12L16.5 9.75"/>
  <path d="M12 16.68C13.1 17.57 14.49 18.03 15.91 18C19.09 17.92 21.76 15.17 21.75 11.98C21.75 10.78 21.39 9.61 20.72 8.62C20.05 7.63 19.1 6.86 17.99 6.44C17.54 5.21 16.73 4.15 15.66 3.4C14.59 2.65 13.32 2.24 12 2.24C10.68 2.24 9.41 2.65 8.34 3.4C7.27 4.15 6.46 5.21 6.01 6.44C4.9 6.86 3.95 7.63 3.28 8.63C2.61 9.62 2.25 10.79 2.25 11.98C2.24 15.17 4.91 17.92 8.09 18C9.51 18.04 10.9 17.57 12 16.68Z"/>
</svg>
