<svg xmlns="http://www.w3.org/2000/svg" viewBox="0 0 24 24" width="24" height="24" fill="currentColor">
  <path d="M11.2 22C11.08 22 10.98 21.9 10.98 21.78V17.83C10.98 17.71 10.88 17.61 10.76 17.61C9.29 17.57 8.14 17.13 7.3 16.3C6.42 15.4 5.98 14.2 5.98 12.68V4.38C5.98 4.26 6.08 4.16 6.2 4.16H7.78C7.9 4.16 8 4.26 8 4.38V12.68C8 13.67 8.28 14.45 8.83 15.02C9.34 15.55 10.02 15.83 10.87 15.87C11 15.88 11.1 15.78 11.1 15.65V2.58C11.1 2.46 11.2 2.36 11.32 2.36H12.68C12.8 2.36 12.9 2.46 12.9 2.58V15.65C12.9 15.78 13 15.88 13.13 15.87C13.98 15.83 14.66 15.55 15.17 15.02C15.72 14.45 16 13.67 16 12.68V4.38C16 4.26 16.1 4.16 16.22 4.16H17.8C17.92 4.16 18.02 4.26 18.02 4.38V12.68C18.02 14.2 17.58 15.4 16.7 16.3C15.86 17.13 14.71 17.57 13.24 17.61C13.12 17.61 13.02 17.71 13.02 17.83V21.78C13.02 21.9 12.92 22 12.8 22H11.2Z"/>
</svg>
