<svg width="24" height="24" viewBox="0 0 24 24" fill="none" xmlns="http://www.w3.org/2000/svg">
<path d="M6.5 10.75C6.80931 10.75 7.08711 10.9402 7.19922 11.2285L10.6992 20.2285C10.7888 20.4592 10.7589 20.7196 10.6191 20.9238C10.4793 21.1281 10.2475 21.25 10 21.25H3C2.75249 21.25 2.52066 21.1281 2.38086 20.9238C2.24114 20.7196 2.21122 20.4592 2.30078 20.2285L5.80078 11.2285C5.91289 10.9402 6.19069 10.75 6.5 10.75ZM4.09668 19.75H8.90332L6.5 13.5693L4.09668 19.75Z" fill="currentColor"/>
<path d="M5.75 22.5V20.5C5.75 20.0858 6.08579 19.75 6.5 19.75C6.91421 19.75 7.25 20.0858 7.25 20.5V22.5C7.25 22.9142 6.91421 23.25 6.5 23.25C6.08579 23.25 5.75 22.9142 5.75 22.5Z" fill="currentColor"/>
<path d="M12 0.75C12.3093 0.75 12.5871 0.940237 12.6992 1.22852L16.1992 10.2285C16.2888 10.4592 16.2589 10.7196 16.1191 10.9238C15.9793 11.1281 15.7475 11.25 15.5 11.25H8.5C8.25249 11.25 8.02066 11.1281 7.88086 10.9238C7.74114 10.7196 7.71122 10.4592 7.80078 10.2285L11.3008 1.22852C11.4129 0.940237 11.6907 0.75 12 0.75ZM9.59668 9.75H14.4033L12 3.56934L9.59668 9.75Z" fill="currentColor"/>
<path d="M11.25 12.5V10.5C11.25 10.0858 11.5858 9.75 12 9.75C12.4142 9.75 12.75 10.0858 12.75 10.5V12.5C12.75 12.9142 12.4142 13.25 12 13.25C11.5858 13.25 11.25 12.9142 11.25 12.5Z" fill="currentColor"/>
<path d="M17 12.25C17.2985 12.25 17.5684 12.4274 17.6875 12.7012L19.0371 15.8027L22.5576 16.0713C22.8629 16.0948 23.1238 16.3017 23.2158 16.5938C23.3078 16.886 23.2125 17.2052 22.9756 17.3994L20.3174 19.5752L21.127 22.8184C21.2 23.111 21.0909 23.4186 20.8496 23.5996C20.6083 23.7806 20.282 23.7995 20.0215 23.6475L17 21.8838L13.9785 23.6475C13.718 23.7995 13.3917 23.7806 13.1504 23.5996C12.9091 23.4186 12.8 23.111 12.873 22.8184L13.6816 19.5752L11.0244 17.3994C10.7875 17.2052 10.6922 16.886 10.7842 16.5938C10.8762 16.3017 11.1371 16.0948 11.4424 16.0713L14.9619 15.8027L16.3125 12.7012L16.3643 12.6025C16.4999 12.3855 16.739 12.25 17 12.25ZM16.1582 16.8154C16.0473 17.0701 15.8043 17.2425 15.5273 17.2637L13.4219 17.4238L15 18.7168C15.2243 18.9006 15.3232 19.1971 15.2529 19.4785L14.7588 21.4551L16.6221 20.3682L16.7119 20.3232C16.9269 20.2338 17.1736 20.2489 17.3779 20.3682L19.2402 21.4551L18.7471 19.4785C18.6768 19.1971 18.7757 18.9006 19 18.7168L20.5772 17.4238L18.4727 17.2637C18.1957 17.2425 17.9527 17.0701 17.8418 16.8154L17 14.8789L16.1582 16.8154Z" fill="currentColor"/>
</svg>
